<?xml version="1.0" encoding="utf-8"?>
<!-- Generator: Adobe Illustrator 16.0.0, SVG Export Plug-In . SVG Version: 6.00 Build 0)  -->
<!DOCTYPE svg PUBLIC "-//W3C//DTD SVG 1.1//EN" "http://www.w3.org/Graphics/SVG/1.1/DTD/svg11.dtd">
<svg version="1.1" id="Layer_1" xmlns="http://www.w3.org/2000/svg" xmlns:xlink="http://www.w3.org/1999/xlink" x="0px" y="0px"
	 width="1000px" height="725.82px" viewBox="0 0 1000 725.82" enable-background="new 0 0 1000 725.82" xml:space="preserve">
<g>
	<path fill-rule="evenodd" clip-rule="evenodd" fill="#FFFFFF" d="M214.787,654.061c27.879,0,50.425-22.301,50.425-50.183V98.667
		c0-27.878-22.546-50.424-50.182-50.424H65.938c-27.878,0-50.423,22.546-50.423,50.424v505.211
		c0,27.882,22.545,50.183,50.423,50.183H214.787L214.787,654.061z"/>
	<path fill-rule="evenodd" clip-rule="evenodd" fill="#FFFFFF" d="M31.029,603.878V98.667c0-19.151,15.757-34.909,34.909-34.909
		h148.848c19.396,0,34.911,15.758,34.911,34.909v505.211c0,19.153-15.515,34.669-34.911,34.669H65.938
		C46.787,638.547,31.029,623.031,31.029,603.878L31.029,603.878L31.029,603.878z M65.938,32.729C29.575,32.729,0,62.304,0,98.667
		v505.211c0,36.124,29.575,65.702,65.938,65.702h148.848c36.364,0,65.941-29.578,65.941-65.702V98.667
		c0-36.363-29.335-65.938-65.941-65.938H65.938L65.938,32.729z"/>
	<path fill-rule="evenodd" clip-rule="evenodd" fill="#0169AC" d="M205.575,581.093c-5.334-22.302-22.788-35.635-13.817-42.911
		c-2.182-7.271-6.788-16.483-6.546-16.239c-27.395-15.76-50.667-41.213-54.545-44.848c-4.849-5.335-12.849-10.669-14.546-14.788
		c-6.546-6.061-38.789-51.638-46.061-68.609l-13.092-1.695c-6.061-24.244-25.696-44.607-26.425-69.092
		c0-9.211,4.364-28.849,5.82-32.728c1.697-4.12,9.211-10.665,9.211-10.665v-6.546c-28.363,0.971-20.121-1.939-25.212-13.092
		c-3.394-7.757-0.969-9.211,0.243-14.789c3.878-15.514,16.485-39.757,21.819-50.908c1.697-5.575,7.029-18.91,7.029-18.91
		c21.335-43.152,29.091-40,54.303-42.424l1.454-1.939c25.212-0.97,21.091-2.908,24.484-27.15c-3.636,1.454-4.604-7.757-4.604-7.757
		c-1.939-13.818,3.879-11.153,6.544-11.396c0.728-22.786,2.91-30.06,19.396-36.363H65.938c-27.878,0-50.423,22.546-50.423,50.424
		v505.211c0,27.882,22.545,50.183,50.423,50.183h149.091c-16.968-8.969-7.029-26.666-6.545-60.118
		C200.484,586.912,205.818,583.76,205.575,581.093"/>
	<path fill-rule="evenodd" clip-rule="evenodd" fill="#EC1E4D" d="M178.181,151.516c4.607,2.911,6.789,4.848,11.395,8
		c12.122,7.517,27.15,21.089,25.211,68.123c3.396,10.18,4.85,30.304,8.243,36.604c6.303,12.849,10.424,20.849,12.364,32.728
		c0,0,1.696,18.424,4.121,19.878c12.606,2.668,8.728,3.879,10.667,6.061c1.939,2.668,9.211,2.425,9.211,9.211
		c2.668,3.395,4.364,6.788,5.818,10.669V98.667c0-27.878-22.546-50.424-50.182-50.424h-48.242
		c7.757,2.909,12.122,6.061,14.789,11.15c6.061,0.486,13.333,14.548,1.939,35.153c5.091,3.393,1.212,8.485-2.424,14.303
		c-1.212,1.939-2.425,5.335-5.575,5.09c-4.607,9.214-9.699,18.183-13.818,18.667c-1.213,1.457-1.941,5.335-0.243,7.274
		c5.818,2.665,12.847,6.303,16.483,9.696L178.181,151.516L178.181,151.516z"/>
	<path fill-rule="evenodd" clip-rule="evenodd" fill="#EC1E4D" d="M222.544,653.58c22.06-13.338,8.243-38.791,4.121-53.822
		c-0.243-0.725,0.243-1.939,0.729-2.666c0.97-1.937-1.212-6.787-1.212-6.787c-2.667-2.181-3.395-14.544-4.849-20.362
		c-2.425-9.455,4.122-25.7,4.122-31.274c0-5.33-4.122-13.088-11.636-22.787c-1.939-2.182-7.517-49.455-12.364-61.332
		c-6.789-16.73-8.971-14.062-16.97-33.7c-6.304-13.817-1.454-34.423-15.515-81.939c0,0.243,3.151-2.909,3.151-2.909
		s-11.394-41.211-15.03-52.364c-3.636-11.393-10.182-12.121-10.182-12.121s0-4.604,0.243-5.816
		c0.727-1.941,13.818-36.363,14.787-37.334c0.243-0.726,19.153-13.817,19.638-11.878c1.455,8.485,8.969,51.395,12.122,58.181
		c2.908,6.787,14.06,27.636,19.15,40.728c-19.635,4.85-34.424,22.546-34.424,43.636c0,24.969,20.121,45.092,45.092,45.092
		c18.91,0,35.152-11.877,41.696-28.363v228.118c0,25.214-18.182,46.063-42.182,49.702H222.544L222.544,653.58z"/>
	<polygon fill-rule="evenodd" clip-rule="evenodd" fill="#FFFFFF" points="57.939,575.272 57.697,572.608 57.454,572.608 
		57.454,619.396 42.424,619.396 42.424,543.762 59.393,543.762 71.514,585.214 72,588.364 72,588.364 72,543.762 87.272,543.762 
		87.272,619.396 70.303,619.396 	"/>
	<path fill-rule="evenodd" clip-rule="evenodd" fill="#FFFFFF" d="M111.031,573.821h4.847c5.334,0,6.061-4.365,6.061-8.97
		c0-5.336-1.211-8.243-5.575-8.243h-5.333V573.821L111.031,573.821z M111.031,606.547h5.09c5.818,0,6.545-2.91,6.545-10.427
		c0-5.089-0.728-10.18-6.06-10.18h-5.575V606.547L111.031,606.547z M93.089,543.762h24.729c12.606,0,18.667,4.845,18.667,17.692
		c0,8.002-1.211,15.033-9.454,17.941l0,0c8.483,1.697,11.394,7.998,11.394,17.455c0,12.848-4.607,22.546-20.121,22.546H93.089
		V543.762L93.089,543.762z"/>
	<path fill-rule="evenodd" clip-rule="evenodd" fill="#FFFFFF" d="M164.12,556.85l-4.364,34.182h8.729l-3.878-34.182l-0.243-1.696
		l0,0L164.12,556.85L164.12,556.85z M152.97,543.762h23.029l14.061,75.635h-18.182l-1.697-16.729H158.06l-1.939,16.729h-17.211
		L152.97,543.762L152.97,543.762z"/>
	<rect x="340.849" fill-rule="evenodd" clip-rule="evenodd" fill="#0F6BB5" width="17.939" height="725.82"/>
	<polygon fill-rule="evenodd" clip-rule="evenodd" fill="#0F6BB5" points="681.7,507.879 681.7,599.033 433.94,599.033 
		433.94,120.728 535.273,120.728 535.273,507.879 	"/>
	<path fill-rule="evenodd" clip-rule="evenodd" fill="#0F6BB5" d="M817.215,328.971h27.636c40.482,0,50.183-28.122,50.183-60.121
		c0-36.85-10.912-64.97-51.879-64.97h-25.939V328.971L817.215,328.971z M715.881,120.728h156.847
		c106.669,0,127.272,85.819,127.272,145.455c0,85.577-36.849,145.942-138.184,145.942h-44.602v186.908H715.881V120.728
		L715.881,120.728z"/>
</g>
</svg>
